# xmcd CD database file
#
# Track frame offsets:
#	180
#	20383
#	43872
#	62910
#	81884
#	104465
#	126276
#	144787
#
# Disc length: 2229 seconds
#
# Revision: 1
# Processed by: cddbd v1.5.2PL0 Copyright (c) Steve Scherf et al.
# Submitted via: CDex 1.51
#
DISCID=6908b308
DTITLE=Lawrence Tamez - Heart, Soul, and Mind
DYEAR=1900
DGENRE=Jazz
TTITLE0=Magnify The Lord
TTITLE1=Greatest Love
TTITLE2=Purificame
TTITLE3=Horizons
TTITLE4=It Must Be Love
TTITLE5=Sing Unto The Lord
TTITLE6=As The Deer
TTITLE7=More Love, More Power
EXTD=
EXTT0=
EXTT1=
EXTT2=
EXTT3=
EXTT4=
EXTT5=
EXTT6=
EXTT7=
PLAYORDER=
